# Blender 4.3.2
# www.blender.org
mtllib Esqueleto.mtl
o Cube
v 0.237721 1.223024 0.367316
v 0.237721 0.583596 0.367316
v -0.251961 1.223024 0.367316
v -0.251961 0.583596 0.367316
v -0.251961 0.075922 0.367316
v 0.237721 0.075922 0.367316
v -0.251961 0.401173 0.367316
v 0.237721 0.401173 0.367316
v -0.251961 0.238547 0.367316
v 0.237721 0.238547 0.367316
v 0.237721 0.401173 0.189050
v -0.251961 0.401173 0.189050
v -0.251961 0.238547 0.189050
v 0.237721 0.238547 0.189050
v -0.251961 -0.150893 0.367316
v 0.237721 -0.150893 0.367316
v 0.237721 0.075922 0.167235
v -0.251961 0.075922 0.167235
v 0.237721 -0.150893 0.167235
v -0.251961 -0.150893 0.167235
v -0.251961 -0.299911 0.367316
v 0.237721 -0.299911 0.367316
v 0.237721 -0.299911 0.257270
v -0.251961 -0.299911 0.257270
v 0.119089 1.223024 0.367316
v 0.119089 0.583596 0.367316
v 0.119089 0.401173 0.367316
v -0.100103 1.223024 0.367316
v -0.100103 0.583596 0.367316
v -0.100103 0.401173 0.367316
v -0.100103 0.583596 0.572773
v 0.119089 0.583596 0.572773
v -0.100103 0.401173 0.572773
v 0.119089 0.401173 0.572773
v -0.100103 -0.305529 0.367316
v 0.119089 -0.305529 0.367316
v -0.100103 -0.305529 0.572773
v 0.119089 -0.305529 0.572773
v 0.237721 -0.150893 0.076422
v 0.237721 0.075922 0.076422
v -0.251961 -0.150893 0.076422
v -0.251961 0.075922 0.076422
v 0.237721 -0.299911 0.076422
v -0.251961 -0.299911 0.076422
v 0.237721 -1.184086 0.257270
v -0.251961 -1.184086 0.257270
v 0.237721 -1.184086 0.076422
v -0.251961 -1.184086 0.076422
v 0.237721 1.223024 -0.272113
v 0.237721 0.583596 -0.272113
v -0.251961 1.223024 -0.272113
v -0.251961 0.583596 -0.272113
v -0.251961 0.075922 0.047601
v -0.251961 0.075922 -0.272113
v 0.237721 0.075922 -0.272113
v 0.237721 0.075922 0.047601
v -0.251961 0.401173 -0.272113
v 0.237721 0.401173 -0.272113
v -0.251961 0.238547 -0.272113
v -0.251961 0.238547 0.047601
v 0.237721 0.238547 0.047601
v 0.237721 0.238547 -0.272113
v 0.237721 0.401173 -0.093847
v -0.251961 0.401173 -0.093847
v -0.251961 0.238547 -0.093847
v 0.237721 0.238547 -0.093847
v -0.251961 -0.150893 0.047601
v -0.251961 -0.150893 -0.272113
v 0.237721 -0.150893 -0.272113
v 0.237721 -0.150893 0.047601
v 0.237721 0.075922 -0.072032
v -0.251961 0.075922 -0.072032
v 0.237721 -0.150893 -0.072032
v -0.251961 -0.150893 -0.072032
v -0.251961 -0.299911 0.047601
v -0.251961 -0.299911 -0.272113
v 0.237721 -0.299911 -0.272113
v 0.237721 -0.299911 0.047601
v 0.237721 -0.299911 -0.162067
v -0.251961 -0.299911 -0.162067
v 0.119089 1.223024 -0.272113
v 0.119089 0.583596 -0.272113
v 0.119089 0.401173 -0.272113
v -0.100103 1.223024 -0.272113
v -0.100103 0.583596 -0.272113
v -0.100103 0.401173 -0.272113
v -0.100103 0.583596 -0.477570
v 0.119089 0.583596 -0.477570
v -0.100103 0.401173 -0.477570
v 0.119089 0.401173 -0.477570
v -0.100103 -0.305529 -0.272113
v 0.119089 -0.305529 -0.272113
v -0.100103 -0.305529 -0.477570
v 0.119089 -0.305529 -0.477570
v 0.237721 -0.150893 0.018780
v 0.237721 0.075922 0.018780
v -0.251961 -0.150893 0.018780
v -0.251961 0.075922 0.018780
v 0.237721 -0.299911 0.018780
v -0.251961 -0.299911 0.018780
v 0.237721 -1.184086 -0.162067
v -0.251961 -1.184086 -0.162067
v 0.237721 -1.184086 0.018780
v -0.251961 -1.184086 0.018780
v 0.237721 0.578030 -0.272113
v 0.237721 0.578030 0.367316
vn -0.0000 -0.0000 1.0000
vn -0.0000 -0.0000 -1.0000
vn -1.0000 -0.0000 -0.0000
vn 1.0000 -0.0000 -0.0000
vn -0.0000 1.0000 -0.0000
vn -0.0000 -1.0000 -0.0000
vt 0.262379 0.803401
vt 0.269766 0.803401
vt 0.269766 0.808250
vt 0.262379 0.808250
vt 0.277734 0.779642
vt 0.277734 0.810405
vt 0.234284 0.566799
vt 0.275611 0.774046
vt 0.275611 0.813097
vt 0.278901 0.762052
vt 0.278901 0.801103
vt 0.278901 0.859678
vt 0.278901 0.879204
vt 0.308646 0.879204
vt 0.237373 0.668453
vt 0.249157 0.762052
vt 0.249157 0.801103
vt 0.278901 0.840153
vt 0.261699 0.785732
vt 0.270445 0.785732
vt 0.270445 0.797214
vt 0.261699 0.797214
vt 0.270445 0.802955
vt 0.261699 0.802955
vt 0.535680 0.703012
vt 0.534463 0.953597
vt 0.378102 0.948962
vt 0.378605 0.702729
vt 0.277734 0.795023
vt 0.277734 0.802714
vt 0.272916 0.789305
vt 0.272916 0.795006
vt 0.281601 0.795006
vt 0.281601 0.789305
vt 0.270846 0.807257
vt 0.270846 0.794252
vt 0.260939 0.794252
vt 0.260939 0.807257
vt 0.260938 0.793655
vt 0.260938 0.799632
vt 0.270044 0.799632
vt 0.270044 0.793655
vt 0.272108 0.775613
vt 0.272148 0.801388
vt 0.260207 0.801222
vt 0.260433 0.776107
vt 0.248314 0.818914
vt 0.260086 0.819148
vt 0.254956 0.854914
s 0
usemtl Material
f 61/15/5 60/15/5 13/15/5 14/15/5
f 42/15/6 40/15/6 17/15/6 18/15/6
f 106/25/3 1/26/3 49/27/3 105/28/3
f 78/10/5 75/16/5 44/16/5 43/10/5
f 53/15/6 56/15/6 40/15/6 42/15/6
f 60/15/1 53/15/1 56/15/1 61/15/1
f 61/7/5 66/7/5 65/7/5 60/7/5
f 75/16/6 76/17/6 77/11/6 78/10/6
f 54/13/6 55/11/6 71/7/6 72/7/6
f 78/10/5 99/10/5 100/16/5 75/16/5
f 53/15/6 98/15/6 96/15/6 56/15/6
usemtl Material.001
f 29/1/1 28/2/1 3/3/1 4/4/1
f 10/5/1 9/6/1 5/6/1 6/5/1
f 18/7/2 17/7/2 19/7/2 20/7/2
f 9/8/3 60/9/3 53/9/3 5/8/3
f 61/10/4 10/11/4 6/11/4 56/10/4
f 29/12/1 4/13/1 7/13/1 30/12/1
f 12/7/2 11/7/2 14/7/2 13/7/2
f 9/7/5 10/7/5 61/7/5 60/7/5
f 4/13/3 3/14/3 51/14/3 52/13/3 57/13/3 7/13/3
f 41/7/4 20/7/4 24/7/4 44/7/4
f 40/7/3 39/7/3 19/7/3 17/7/3
f 41/7/4 42/7/4 18/7/4 20/7/4
f 75/16/6 78/10/6 22/11/6 21/17/6
f 43/10/1 44/16/1 48/16/1 47/10/1
f 16/7/1 15/7/1 21/7/1 22/7/1
f 39/7/3 70/7/3 78/7/3 43/7/3
f 15/7/3 67/7/3 75/7/3 21/7/3
f 5/13/6 18/7/6 17/7/6 6/11/6
f 15/7/5 16/7/5 19/7/5 20/7/5
f 19/7/3 23/7/3 22/7/3 16/7/3
f 2/11/1 26/18/1 27/18/1 8/11/1
f 2/19/1 1/20/1 25/21/1 26/22/1
f 27/18/4 26/18/4 32/18/4 34/18/4
f 26/22/1 25/21/1 28/23/1 29/24/1
f 32/29/1 31/30/1 33/30/1 34/29/1
f 29/12/3 30/12/3 33/12/3 31/12/3
f 34/29/1 33/30/1 37/30/1 38/29/1
f 26/18/5 29/12/5 31/12/5 32/18/5
f 35/7/6 36/7/6 38/7/6 37/7/6
f 33/12/3 30/12/3 35/12/3 37/12/3
f 30/7/2 27/7/2 36/7/2 35/7/2
f 27/18/4 34/18/4 38/18/4 36/18/4
f 19/7/3 39/7/3 43/7/3 23/7/3
f 67/7/4 53/7/4 42/7/4 41/7/4
f 56/7/3 70/7/3 39/7/3 40/7/3
f 67/7/4 41/7/4 44/7/4 75/7/4
f 47/10/5 48/16/5 46/16/5 45/10/5
f 44/7/4 24/7/4 46/7/4 48/7/4
f 24/7/2 23/7/2 45/7/2 46/7/2
f 23/7/3 43/7/3 47/7/3 45/7/3
f 85/31/2 52/32/2 51/33/2 84/34/2
f 62/11/2 55/11/2 54/13/2 59/13/2
f 72/7/1 74/7/1 73/7/1 71/7/1
f 59/8/3 54/8/3 53/9/3 60/9/3
f 61/10/4 56/10/4 55/11/4 62/11/4
f 85/12/2 86/12/2 57/13/2 52/13/2
f 64/7/1 65/7/1 66/7/1 63/7/1
f 59/7/5 60/7/5 61/7/5 62/7/5
f 97/7/4 100/7/4 80/7/4 74/7/4
f 96/7/3 71/7/3 73/7/3 95/7/3
f 98/15/6 72/15/6 71/15/6 96/15/6
f 97/7/4 74/7/4 72/7/4 98/7/4
f 99/10/2 103/10/2 104/16/2 100/16/2
f 69/7/2 77/7/2 76/7/2 68/7/2
f 95/7/3 99/7/3 78/7/3 70/7/3
f 68/7/3 76/7/3 75/7/3 67/7/3
f 68/7/5 74/7/5 73/7/5 69/7/5
f 73/7/3 69/7/3 77/7/3 79/7/3
f 50/11/2 58/11/2 83/18/2 82/18/2
f 50/35/2 82/36/2 81/37/2 49/38/2
f 83/18/4 90/18/4 88/18/4 82/18/4
f 82/39/2 85/40/2 84/41/2 81/42/2
f 14/7/3 11/7/3 63/7/3 66/7/3
f 88/18/2 90/18/2 89/12/2 87/12/2
f 85/12/3 87/12/3 89/12/3 86/12/3
f 90/18/2 94/18/2 93/12/2 89/12/2
f 82/18/5 88/18/5 87/12/5 85/12/5
f 91/7/6 93/7/6 94/7/6 92/7/6
f 89/12/3 93/12/3 91/12/3 86/12/3
f 86/7/1 91/7/1 92/7/1 83/7/1
f 83/18/4 92/18/4 94/18/4 90/18/4
f 73/7/3 79/7/3 99/7/3 95/7/3
f 67/7/4 97/7/4 98/7/4 53/7/4
f 56/7/3 96/7/3 95/7/3 70/7/3
f 67/7/4 75/7/4 100/7/4 97/7/4
f 103/10/5 101/10/5 102/16/5 104/16/5
f 100/7/4 104/7/4 102/7/4 80/7/4
f 80/7/1 102/7/1 101/7/1 79/7/1
f 79/7/3 101/7/3 103/7/3 99/7/3
f 8/43/3 106/44/3 105/45/3 58/46/3
f 49/47/6 1/48/6 3/49/6 51/49/6
f 13/7/4 65/7/4 64/7/4 12/7/4
