# Blender 4.3.2
# www.blender.org
mtllib manzana.mtl
o Cube.001
v 0.600000 2.400000 1.900000
v 1.400000 2.125038 1.625038
v 0.600000 2.400000 1.100000
v 1.400000 2.125038 1.374962
v 0.600000 1.600000 1.900000
v 1.400000 1.874962 1.625038
v 0.600000 1.600000 1.100000
v 1.400000 1.874962 1.374962
v 1.400000 2.400000 1.900000
v 1.400000 2.400000 1.100000
v 1.400000 1.600000 1.100000
v 1.400000 1.600000 1.900000
v 1.550934 2.125038 1.625038
v 1.550934 2.125038 1.374962
v 1.550934 1.874962 1.374962
v 1.550934 1.874962 1.625038
vn -0.0000 1.0000 -0.0000
vn -0.0000 -0.0000 -1.0000
vn -0.0000 -1.0000 -0.0000
vn -0.0000 -0.0000 1.0000
vn -1.0000 -0.0000 -0.0000
vn 1.0000 -0.0000 -0.0000
vt 0.375000 0.000000
vt 0.625000 0.000000
vt 0.625000 0.250000
vt 0.375000 0.250000
vt 0.625000 0.500000
vt 0.375000 0.500000
vt 0.625000 0.750000
vt 0.375000 0.750000
vt 0.625000 1.000000
vt 0.375000 1.000000
vt 0.125000 0.500000
vt 0.125000 0.750000
vt 0.789074 0.585926
vt 0.789074 0.664074
vt 0.875000 0.500000
vt 0.875000 0.750000
vt 0.710926 0.585926
vt 0.710926 0.664074
s 0
usemtl textura_manzana
f 1/1/1 9/2/1 10/3/1 3/4/1
f 3/4/2 10/3/2 11/5/2 7/6/2
f 7/6/3 11/5/3 12/7/3 5/8/3
f 5/8/4 12/7/4 9/9/4 1/10/4
f 3/11/5 7/6/5 5/8/5 1/12/5
f 2/14/6 4/13/6 10/15/6 9/16/6
f 4/13/6 8/17/6 11/5/6 10/15/6
f 8/17/6 6/18/6 12/7/6 11/5/6
f 6/18/6 2/14/6 9/16/6 12/7/6
usemtl textura_ramita
f 4/13/1 2/14/1 13/14/1 14/13/1
f 15/17/6 14/13/6 13/14/6 16/18/6
f 2/14/4 6/18/4 16/18/4 13/14/4
f 8/17/2 4/13/2 14/13/2 15/17/2
f 6/18/3 8/17/3 15/17/3 16/18/3
