# Blender 4.3.2
# www.blender.org
mtllib slime.mtl
o Cube
v 1.848512 0.000000 -1.848512
v 1.848512 0.151488 -2.000000
v 2.000000 0.151488 -1.848512
v 1.848512 0.020238 -1.924157
v 1.924157 0.020238 -1.848512
v 1.920955 0.039897 -1.920955
v 1.924157 0.151488 -1.979762
v 1.848512 0.075843 -1.979762
v 1.920955 0.079045 -1.960103
v 1.979762 0.075843 -1.848512
v 1.979762 0.151488 -1.924157
v 1.960103 0.079045 -1.920955
v 1.848512 0.151488 2.000000
v 1.848512 0.000000 1.848512
v 2.000000 0.151488 1.848512
v 1.848512 0.075843 1.979762
v 1.924157 0.151488 1.979762
v 1.920955 0.079045 1.960103
v 1.924157 0.020238 1.848512
v 1.848512 0.020238 1.924157
v 1.920955 0.039897 1.920955
v 1.979762 0.151488 1.924157
v 1.979762 0.075843 1.848512
v 1.960103 0.079045 1.920955
v 2.000000 3.848512 -1.848512
v 1.848512 3.848512 -2.000000
v 1.848512 4.000000 -1.848512
v 1.979762 3.848512 -1.924157
v 1.979762 3.924157 -1.848512
v 1.960103 3.920955 -1.920955
v 1.848512 3.924157 -1.979762
v 1.924157 3.848512 -1.979762
v 1.920955 3.920955 -1.960103
v 1.924157 3.979762 -1.848512
v 1.848512 3.979762 -1.924157
v 1.920955 3.960103 -1.920955
v 2.000000 3.848512 1.848512
v 1.848512 4.000000 1.848512
v 1.848512 3.848512 2.000000
v 1.979762 3.924157 1.848512
v 1.979762 3.848512 1.924157
v 1.960103 3.920955 1.920955
v 1.848512 3.979762 1.924157
v 1.924157 3.979762 1.848512
v 1.920955 3.960103 1.920955
v 1.924157 3.848512 1.979762
v 1.848512 3.924157 1.979762
v 1.920955 3.920955 1.960103
v -1.848512 0.000000 -1.848512
v -2.000000 0.151488 -1.848512
v -1.848512 0.151488 -2.000000
v -1.924157 0.020238 -1.848512
v -1.848512 0.020238 -1.924157
v -1.920955 0.039897 -1.920955
v -1.979762 0.151488 -1.924157
v -1.979762 0.075843 -1.848512
v -1.960103 0.079045 -1.920955
v -1.848512 0.075843 -1.979762
v -1.924157 0.151488 -1.979762
v -1.920955 0.079045 -1.960103
v -2.000000 0.151488 1.848512
v -1.848512 0.000000 1.848512
v -1.848512 0.151488 2.000000
v -1.979762 0.075843 1.848512
v -1.979762 0.151488 1.924157
v -1.960103 0.079045 1.920955
v -1.848512 0.020238 1.924157
v -1.924157 0.020238 1.848512
v -1.920955 0.039897 1.920955
v -1.924157 0.151488 1.979762
v -1.848512 0.075843 1.979762
v -1.920955 0.079045 1.960103
v -2.000000 3.848512 -1.848512
v -1.848512 4.000000 -1.848512
v -1.848512 3.848512 -2.000000
v -1.979762 3.924157 -1.848512
v -1.979762 3.848512 -1.924157
v -1.960103 3.920955 -1.920955
v -1.848512 3.979762 -1.924157
v -1.924157 3.979762 -1.848512
v -1.920955 3.960103 -1.920955
v -1.924157 3.848512 -1.979762
v -1.848512 3.924157 -1.979762
v -1.920955 3.920955 -1.960103
v -1.848512 3.848512 2.000000
v -1.848512 4.000000 1.848512
v -2.000000 3.848512 1.848512
v -1.848512 3.924157 1.979762
v -1.924157 3.848512 1.979762
v -1.920955 3.920955 1.960103
v -1.924157 3.979762 1.848512
v -1.848512 3.979762 1.924157
v -1.920955 3.960103 1.920955
v -1.979762 3.848512 1.924157
v -1.979762 3.924157 1.848512
v -1.960103 3.920955 1.920955
vn -0.0000 -0.0000 1.0000
vn -1.0000 -0.0000 -0.0000
vn -0.0000 1.0000 -0.0000
vn -0.0000 -0.0000 -1.0000
vn 1.0000 -0.0000 -0.0000
vn 0.2566 -0.9318 -0.2566
vn 0.2178 -0.6901 -0.6901
vn 0.2566 -0.2566 -0.9318
vn 0.6901 -0.2178 -0.6901
vn 0.9318 -0.2566 -0.2566
vn 0.6901 -0.6901 -0.2178
vn 0.5774 -0.5774 -0.5774
vn 0.2566 -0.2566 0.9318
vn 0.2178 -0.6901 0.6901
vn 0.2566 -0.9318 0.2566
vn 0.6901 -0.6901 0.2178
vn 0.9318 -0.2566 0.2566
vn 0.6901 -0.2178 0.6901
vn 0.5774 -0.5774 0.5774
vn 0.9318 0.2566 -0.2566
vn 0.6901 0.2178 -0.6901
vn 0.2566 0.2566 -0.9318
vn 0.2178 0.6901 -0.6901
vn 0.2566 0.9318 -0.2566
vn 0.6901 0.6901 -0.2178
vn 0.5774 0.5774 -0.5774
vn 0.9318 0.2566 0.2566
vn 0.6901 0.6901 0.2178
vn 0.2566 0.9318 0.2566
vn 0.2178 0.6901 0.6901
vn 0.2566 0.2566 0.9318
vn 0.6901 0.2178 0.6901
vn 0.5774 0.5774 0.5774
vn -0.2566 -0.9318 -0.2566
vn -0.6901 -0.6901 -0.2178
vn -0.9318 -0.2566 -0.2566
vn -0.6901 -0.2178 -0.6901
vn -0.2566 -0.2566 -0.9318
vn -0.2178 -0.6901 -0.6901
vn -0.5774 -0.5774 -0.5774
vn -0.9318 -0.2566 0.2566
vn -0.6901 -0.6901 0.2178
vn -0.2566 -0.9318 0.2566
vn -0.2178 -0.6901 0.6901
vn -0.2566 -0.2566 0.9318
vn -0.6901 -0.2178 0.6901
vn -0.5774 -0.5774 0.5774
vn -0.9318 0.2566 -0.2566
vn -0.6901 0.6901 -0.2178
vn -0.2566 0.9318 -0.2566
vn -0.2178 0.6901 -0.6901
vn -0.2566 0.2566 -0.9318
vn -0.6901 0.2178 -0.6901
vn -0.5774 0.5774 -0.5774
vn -0.2566 0.2566 0.9318
vn -0.2178 0.6901 0.6901
vn -0.2566 0.9318 0.2566
vn -0.6901 0.6901 0.2178
vn -0.9318 0.2566 0.2566
vn -0.6901 0.2178 0.6901
vn -0.5774 0.5774 0.5774
vn -0.2585 -0.0000 0.9660
vn -0.7071 -0.0000 0.7071
vn -0.9660 -0.0000 0.2585
vn -0.0000 -0.2585 0.9660
vn -0.0000 -0.7071 0.7071
vn -0.0000 -0.9660 0.2585
vn 0.9660 -0.2585 -0.0000
vn 0.7071 -0.7071 -0.0000
vn 0.2585 -0.9660 -0.0000
vn -0.2585 0.9660 -0.0000
vn -0.7071 0.7071 -0.0000
vn -0.9660 0.2585 -0.0000
vn 0.2585 0.9660 -0.0000
vn 0.7071 0.7071 -0.0000
vn 0.9660 0.2585 -0.0000
vn -0.2585 -0.9660 -0.0000
vn -0.7071 -0.7071 -0.0000
vn -0.9660 -0.2585 -0.0000
vn -0.0000 0.2585 -0.9660
vn -0.0000 0.7071 -0.7071
vn -0.0000 0.9660 -0.2585
vn 0.2585 -0.0000 -0.9660
vn 0.7071 -0.0000 -0.7071
vn 0.9660 -0.0000 -0.2585
vn -0.0000 0.2585 0.9660
vn -0.0000 0.7071 0.7071
vn -0.0000 0.9660 0.2585
vn -0.2585 -0.0000 -0.9660
vn -0.7071 -0.0000 -0.7071
vn -0.9660 -0.0000 -0.2585
vn -0.0000 -0.2585 -0.9660
vn -0.0000 -0.7071 -0.7071
vn -0.0000 -0.9660 -0.2585
vn 0.2585 -0.0000 0.9660
vn 0.7071 -0.0000 0.7071
vn 0.9660 -0.0000 0.2585
vn -0.0000 -1.0000 -0.0000
vt 0.134468 0.509468
vt 0.365532 0.509468
vt 0.365532 0.740532
vt 0.134468 0.740532
vt 0.384468 0.009468
vt 0.615532 0.009468
vt 0.615532 0.240532
vt 0.384468 0.240532
vt 0.384468 0.759468
vt 0.615532 0.759468
vt 0.615532 0.990532
vt 0.384468 0.990532
vt 0.634468 0.509468
vt 0.865532 0.509468
vt 0.865532 0.740532
vt 0.634468 0.740532
vt 0.003492 0.005364
vt 0.993921 0.005364
vt 0.993921 0.995792
vt 0.003492 0.995792
vt 0.615532 0.490532
vt 0.620260 0.490532
vt 0.620060 0.495060
vt 0.615532 0.495260
vt 0.625000 0.490532
vt 0.625000 0.495060
vt 0.629740 0.509468
vt 0.629940 0.500000
vt 0.634468 0.500000
vt 0.620260 0.509468
vt 0.620060 0.504940
vt 0.615532 0.509468
vt 0.615532 0.504740
vt 0.620060 0.497506
vt 0.365532 0.504740
vt 0.370060 0.504940
vt 0.370260 0.509468
vt 0.365532 0.500000
vt 0.370060 0.500000
vt 0.384468 0.490532
vt 0.384468 0.495260
vt 0.375000 0.495060
vt 0.375000 0.490532
vt 0.384468 0.504740
vt 0.379940 0.504940
vt 0.384468 0.509468
vt 0.379740 0.509468
vt 0.372506 0.504940
vt 0.615532 0.740532
vt 0.620260 0.740532
vt 0.620060 0.745060
vt 0.615532 0.745260
vt 0.629740 0.740532
vt 0.629940 0.750000
vt 0.634468 0.750000
vt 0.625000 0.759468
vt 0.620260 0.759468
vt 0.620060 0.754940
vt 0.625000 0.754940
vt 0.615532 0.754740
vt 0.620060 0.752494
vt 0.384468 0.740532
vt 0.384468 0.745260
vt 0.379940 0.745060
vt 0.379740 0.740532
vt 0.384468 0.754740
vt 0.375000 0.754940
vt 0.375000 0.759468
vt 0.365532 0.750000
vt 0.365532 0.745260
vt 0.370060 0.745060
vt 0.370060 0.750000
vt 0.370260 0.740532
vt 0.372506 0.745060
vt 0.615532 0.259468
vt 0.615532 0.254740
vt 0.620060 0.254940
vt 0.620260 0.259468
vt 0.615532 0.245260
vt 0.620060 0.245060
vt 0.620260 0.240532
vt 0.625000 0.240532
vt 0.625000 0.245060
vt 0.865532 0.500000
vt 0.875000 0.504940
vt 0.875000 0.509468
vt 0.625000 0.259468
vt 0.625000 0.250000
vt 0.620060 0.247506
vt 0.384468 0.245260
vt 0.375000 0.245060
vt 0.375000 0.240532
vt 0.384468 0.254740
vt 0.375000 0.254940
vt 0.384468 0.259468
vt 0.375000 0.259468
vt 0.134468 0.500000
vt 0.134468 0.504740
vt 0.129940 0.504940
vt 0.129940 0.500000
vt 0.129740 0.509468
vt 0.125000 0.509468
vt 0.125000 0.504940
vt 0.615532 0.004740
vt 0.620060 0.004940
vt 0.620260 0.009468
vt 0.615532 0.000000
vt 0.620060 0.000000
vt 0.620260 0.990532
vt 0.620060 1.000000
vt 0.615532 1.000000
vt 0.625000 0.990532
vt 0.625000 1.000000
vt 0.875000 0.740532
vt 0.875000 0.745060
vt 0.865532 0.750000
vt 0.625000 0.009468
vt 0.625000 0.004940
vt 0.134468 0.745260
vt 0.129940 0.745060
vt 0.129740 0.740532
vt 0.134468 0.750000
vt 0.129940 0.750000
vt 0.384468 1.000000
vt 0.375000 0.995060
vt 0.375000 0.990532
vt 0.384468 0.000000
vt 0.384468 0.004740
vt 0.375000 0.004940
vt 0.375000 0.000000
vt 0.375000 0.009468
vt 0.125000 0.740532
vt 0.125000 0.745060
s 0
usemtl textura_cuerpo
f 63/1/1 13/2/1 39/3/1 85/4/1
f 87/5/2 73/6/2 50/7/2 61/8/2
f 38/9/3 27/10/3 74/11/3 86/12/3
f 2/13/4 51/14/4 75/15/4 26/16/4
f 1/21/6 4/22/6 6/23/6 5/24/6
f 4/22/7 8/25/7 9/26/7 6/23/7
f 2/13/8 7/27/8 9/28/8 8/29/8
f 7/27/9 11/30/9 12/31/9 9/28/9
f 3/32/10 10/33/10 12/31/10 11/30/10
f 10/33/11 5/24/11 6/23/11 12/31/11
f 6/23/12 9/26/12 12/34/12
f 13/2/13 16/35/13 18/36/13 17/37/13
f 16/35/14 20/38/14 21/39/14 18/36/14
f 14/40/15 19/41/15 21/42/15 20/43/15
f 19/41/16 23/44/16 24/45/16 21/42/16
f 15/46/17 22/47/17 24/45/17 23/44/17
f 22/47/18 17/37/18 18/36/18 24/45/18
f 18/36/19 21/39/19 24/48/19
f 25/49/20 28/50/20 30/51/20 29/52/20
f 28/50/21 32/53/21 33/54/21 30/51/21
f 26/16/22 31/55/22 33/54/22 32/53/22
f 31/56/23 35/57/23 36/58/23 33/59/23
f 27/10/24 34/60/24 36/58/24 35/57/24
f 34/60/25 29/52/25 30/51/25 36/58/25
f 30/61/26 33/59/26 36/58/26
f 37/62/27 40/63/27 42/64/27 41/65/27
f 40/63/28 44/66/28 45/67/28 42/64/28
f 38/9/29 43/68/29 45/67/29 44/66/29
f 43/69/30 47/70/30 48/71/30 45/72/30
f 39/3/31 46/73/31 48/71/31 47/70/31
f 46/73/32 41/65/32 42/64/32 48/71/32
f 42/74/33 45/72/33 48/71/33
f 49/75/34 52/76/34 54/77/34 53/78/34
f 52/76/35 56/79/35 57/80/35 54/77/35
f 50/7/36 55/81/36 57/80/36 56/79/36
f 55/81/37 59/82/37 60/83/37 57/80/37
f 51/14/38 58/84/38 60/85/38 59/86/38
f 58/87/39 53/78/39 54/77/39 60/88/39
f 54/89/40 57/80/40 60/83/40
f 61/8/41 64/90/41 66/91/41 65/92/41
f 64/90/42 68/93/42 69/94/42 66/91/42
f 62/95/43 67/96/43 69/94/43 68/93/43
f 67/97/44 71/98/44 72/99/44 69/100/44
f 63/1/45 70/101/45 72/99/45 71/98/45
f 70/101/46 65/102/46 66/103/46 72/99/46
f 66/103/47 69/100/47 72/99/47
f 73/6/48 76/104/48 78/105/48 77/106/48
f 76/104/49 80/107/49 81/108/49 78/105/49
f 74/11/50 79/109/50 81/110/50 80/111/50
f 79/109/51 83/112/51 84/113/51 81/110/51
f 75/15/52 82/114/52 84/115/52 83/116/52
f 82/117/53 77/106/53 78/105/53 84/118/53
f 78/105/54 81/108/54 84/118/54
f 85/4/55 88/119/55 90/120/55 89/121/55
f 88/119/56 92/122/56 93/123/56 90/120/56
f 86/12/57 91/124/57 93/125/57 92/126/57
f 91/127/58 95/128/58 96/129/58 93/130/58
f 87/5/59 94/131/59 96/129/59 95/128/59
f 94/132/60 89/121/60 90/120/60 96/133/60
f 90/120/61 93/123/61 96/133/61
f 63/1/62 85/4/62 89/121/62 70/101/62
f 70/101/63 89/121/63 94/132/63 65/102/63
f 65/92/64 94/131/64 87/5/64 61/8/64
f 13/2/65 63/1/65 71/98/65 16/35/65
f 16/35/66 71/98/66 67/97/66 20/38/66
f 20/43/67 67/96/67 62/95/67 14/40/67
f 3/32/68 15/46/68 23/44/68 10/33/68
f 10/33/69 23/44/69 19/41/69 5/24/69
f 5/24/70 19/41/70 14/40/70 1/21/70
f 86/12/71 74/11/71 80/111/71 91/124/71
f 91/127/72 80/107/72 76/104/72 95/128/72
f 95/128/73 76/104/73 73/6/73 87/5/73
f 27/10/74 38/9/74 44/66/74 34/60/74
f 34/60/75 44/66/75 40/63/75 29/52/75
f 29/52/76 40/63/76 37/62/76 25/49/76
f 49/75/77 62/95/77 68/93/77 52/76/77
f 52/76/78 68/93/78 64/90/78 56/79/78
f 56/79/79 64/90/79 61/8/79 50/7/79
f 26/16/80 75/15/80 83/116/80 31/55/80
f 31/56/81 83/112/81 79/109/81 35/57/81
f 35/57/82 79/109/82 74/11/82 27/10/82
f 2/13/83 26/16/83 32/53/83 7/27/83
f 7/27/84 32/53/84 28/50/84 11/30/84
f 11/30/85 28/50/85 25/49/85 3/32/85
f 85/4/86 39/3/86 47/70/86 88/119/86
f 88/119/87 47/70/87 43/69/87 92/122/87
f 92/126/88 43/68/88 38/9/88 86/12/88
f 75/15/89 51/14/89 59/86/89 82/114/89
f 82/117/90 59/82/90 55/81/90 77/106/90
f 77/106/91 55/81/91 50/7/91 73/6/91
f 51/14/92 2/13/92 8/29/92 58/84/92
f 58/87/93 8/25/93 4/22/93 53/78/93
f 53/78/94 4/22/94 1/21/94 49/75/94
f 39/3/95 13/2/95 17/37/95 46/73/95
f 46/73/96 17/37/96 22/47/96 41/65/96
f 41/65/97 22/47/97 15/46/97 37/62/97
f 62/95/98 49/75/98 1/21/98 14/40/98
usemtl textura_cara
f 15/17/5 3/18/5 25/19/5 37/20/5
