# Blender 4.3.2
# www.blender.org
mtllib steve.mtl
o Piernas
v 0.600000 1.995865 -1.000000
v 0.600000 -0.404135 -1.000000
v 0.600000 1.995865 1.000000
v 0.600000 -0.404135 1.000000
v -0.600000 1.995865 -1.000000
v -0.600000 -0.404135 -1.000000
v -0.600000 1.995865 1.000000
v -0.600000 -0.404135 1.000000
vn -0.0000 1.0000 -0.0000
vn -0.0000 -0.0000 1.0000
vn -1.0000 -0.0000 -0.0000
vn -0.0000 -1.0000 -0.0000
vn 1.0000 -0.0000 -0.0000
vn -0.0000 -0.0000 -1.0000
vt 0.625000 0.500000
vt 0.875000 0.500000
vt 0.875000 0.750000
vt 0.625000 0.750000
vt 0.430717 0.024818
vt 0.431526 0.352818
vt 0.373802 0.354190
vt 0.372993 0.026190
vt 0.215328 0.029982
vt 0.214673 0.414541
vt 0.092688 0.413924
vt 0.093344 0.029365
vt 0.591107 0.014416
vt 0.712665 0.014416
vt 0.712665 0.066373
vt 0.591107 0.066373
vt 0.713034 0.033563
vt 0.712666 0.417385
vt 0.591852 0.413935
vt 0.592220 0.030113
vt 0.934214 0.018703
vt 0.933898 0.350365
vt 0.873262 0.349850
vt 0.873578 0.018188
s 0
usemtl textura_piernas
f 1/1/1 5/2/1 7/3/1 3/4/1
f 4/5/2 3/6/2 7/7/2 8/8/2
f 8/9/3 7/10/3 5/11/3 6/12/3
f 6/13/4 2/14/4 4/15/4 8/16/4
f 2/17/5 1/18/5 3/19/5 4/20/5
f 6/21/6 5/22/6 1/23/6 2/24/6
o Torso
v 0.600000 4.000000 -1.000000
v 0.600000 2.000000 -1.000000
v 0.600000 4.000000 1.000000
v 0.600000 2.000000 1.000000
v -0.600000 4.000000 -1.000000
v -0.600000 2.000000 -1.000000
v -0.600000 4.000000 1.000000
v -0.600000 2.000000 1.000000
vn -0.0000 1.0000 -0.0000
vn -0.0000 -0.0000 1.0000
vn -1.0000 -0.0000 -0.0000
vn -0.0000 -1.0000 -0.0000
vn 1.0000 -0.0000 -0.0000
vn -0.0000 -0.0000 -1.0000
vt 0.625000 0.500000
vt 0.875000 0.500000
vt 0.875000 0.750000
vt 0.625000 0.750000
vt 0.591295 0.419828
vt 0.714682 0.419828
vt 0.714682 0.646112
vt 0.591295 0.646112
vt 0.212905 0.422235
vt 0.211823 0.704376
vt 0.092519 0.703612
vt 0.093601 0.421471
vt 0.125000 0.500000
vt 0.375000 0.500000
vt 0.375000 0.750000
vt 0.125000 0.750000
vt 0.715658 0.402686
vt 0.715356 0.706471
vt 0.592397 0.707014
vt 0.592699 0.403228
vt 0.598913 0.427220
vt 0.708364 0.427220
vt 0.708364 0.649806
vt 0.598913 0.649806
s 0
usemtl textura_torso
f 9/25/7 13/26/7 15/27/7 11/28/7
f 12/29/8 11/30/8 15/31/8 16/32/8
f 16/33/9 15/34/9 13/35/9 14/36/9
f 14/37/10 10/38/10 12/39/10 16/40/10
f 10/41/11 9/42/11 11/43/11 12/44/11
f 14/45/12 13/46/12 9/47/12 10/48/12
o BrazoIzquierdo
v 0.600000 4.000000 -2.000000
v 0.600000 2.000000 -2.000000
v 0.600000 4.000000 -1.000000
v 0.600000 2.000000 -1.000000
v -0.600000 4.000000 -2.000000
v -0.600000 2.000000 -2.000000
v -0.600000 4.000000 -1.000000
v -0.600000 2.000000 -1.000000
v -0.600000 1.592176 -2.000000
v -0.600000 1.592176 -1.000000
v 0.600000 1.592176 -2.000000
v 0.600000 1.592176 -1.000000
vn -0.0000 1.0000 -0.0000
vn -0.0000 -0.0000 1.0000
vn -1.0000 -0.0000 -0.0000
vn 1.0000 -0.0000 -0.0000
vn -0.0000 -0.0000 -1.0000
vn -0.0000 -1.0000 -0.0000
vt 0.536368 0.593119
vt 0.595191 0.593119
vt 0.595191 0.700150
vt 0.536368 0.700150
vt 0.433123 0.359663
vt 0.432862 0.688456
vt 0.372658 0.688031
vt 0.372919 0.359237
vt 0.596869 0.422402
vt 0.596431 0.702908
vt 0.534936 0.702313
vt 0.535374 0.421806
vt 0.416273 0.356245
vt 0.416273 0.409526
vt 0.283176 0.422769
vt 0.283286 0.701140
vt 0.222294 0.701291
vt 0.222183 0.422920
vt 0.439639 0.418899
vt 0.439389 0.702289
vt 0.378123 0.702945
vt 0.376923 0.419555
vt 0.218048 0.363035
vt 0.276401 0.363035
vt 0.276401 0.420355
vt 0.218048 0.420355
vt 0.596576 0.362030
vt 0.596576 0.421703
vt 0.534885 0.422602
vt 0.535252 0.362480
vt 0.223976 0.419448
vt 0.284882 0.419320
vt 0.285094 0.364146
vt 0.224189 0.364274
vt 0.437912 0.373767
vt 0.409874 0.465747
vt 0.382667 0.373263
s 0
usemtl textura_brazoIzquierdo
f 17/49/13 21/50/13 23/51/13 19/52/13
f 20/53/14 19/54/14 23/55/14 24/56/14
f 24/57/15 23/58/15 21/59/15 22/60/15
f 20/61/14 24/62/14 26/62/14 28/61/14
f 18/63/16 17/64/16 19/65/16 20/66/16
f 22/67/17 21/68/17 17/69/17 18/70/17
f 25/71/18 27/72/18 28/73/18 26/74/18
f 24/75/15 22/76/15 25/77/15 26/78/15
f 18/79/16 20/80/16 28/81/16 27/82/16
f 22/83/17 18/84/17 27/85/17 25/83/17
o Cube
v -1.000000 4.000000 1.000000
v -1.000000 6.000000 1.000000
v -1.000000 4.000000 -1.000000
v -1.000000 6.000000 -1.000000
v 1.000000 4.000000 1.000000
v 1.000000 6.000000 1.000000
v 1.000000 4.000000 -1.000000
v 1.000000 6.000000 -1.000000
vn -1.0000 -0.0000 -0.0000
vn -0.0000 -0.0000 -1.0000
vn 1.0000 -0.0000 -0.0000
vn -0.0000 -0.0000 1.0000
vn -0.0000 -1.0000 -0.0000
vn -0.0000 1.0000 -0.0000
vt 0.219813 0.706522
vt 0.219667 0.927339
vt 0.098001 0.927070
vt 0.098147 0.706252
vt 0.966447 0.714650
vt 0.966392 0.929029
vt 0.848208 0.928931
vt 0.848263 0.714552
vt 0.716931 0.708971
vt 0.717322 0.927945
vt 0.599338 0.928161
vt 0.598948 0.709187
vt 0.470455 0.708635
vt 0.470212 0.924487
vt 0.350413 0.924096
vt 0.350655 0.708244
vt 0.356146 0.687674
vt 0.475531 0.687674
vt 0.475531 0.907866
vt 0.356146 0.907866
vt 0.098950 0.742608
vt 0.219320 0.742608
vt 0.219320 0.941652
vt 0.098950 0.941652
s 0
usemtl textura_cabeza
f 29/86/19 30/87/19 32/88/19 31/89/19
f 31/90/20 32/91/20 36/92/20 35/93/20
f 35/94/21 36/95/21 34/96/21 33/97/21
f 33/98/22 34/99/22 30/100/22 29/101/22
f 31/102/23 35/103/23 33/104/23 29/105/23
f 36/106/24 32/107/24 30/108/24 34/109/24
o BrazoIzquierdo.001
v 0.600000 4.000000 1.000000
v 0.600000 2.000000 1.000000
v 0.600000 4.000000 2.000000
v 0.600000 2.000000 2.000000
v -0.600000 4.000000 1.000000
v -0.600000 2.000000 1.000000
v -0.600000 4.000000 2.000000
v -0.600000 2.000000 2.000000
v -0.600000 1.592176 1.000000
v -0.600000 1.592176 2.000000
v 0.600000 1.592176 1.000000
v 0.600000 1.592176 2.000000
vn -0.0000 1.0000 -0.0000
vn -0.0000 -0.0000 1.0000
vn -1.0000 -0.0000 -0.0000
vn 1.0000 -0.0000 -0.0000
vn -0.0000 -0.0000 -1.0000
vn -0.0000 -1.0000 -0.0000
vt 0.530899 0.590229
vt 0.589723 0.590229
vt 0.589723 0.697260
vt 0.530899 0.697260
vt 0.439764 0.366142
vt 0.439503 0.705075
vt 0.379299 0.704636
vt 0.379560 0.365703
vt 0.596150 0.414070
vt 0.595712 0.702908
vt 0.534217 0.702295
vt 0.534655 0.413456
vt 0.401216 0.404667
vt 0.402424 0.511333
vt 0.095589 0.414099
vt 0.095700 0.692469
vt 0.034708 0.692620
vt 0.034597 0.414250
vt 0.235225 0.355040
vt 0.296380 0.355040
vt 0.296380 0.567607
vt 0.235225 0.567607
vt 0.035895 0.362881
vt 0.093514 0.362881
vt 0.093514 0.418927
vt 0.035895 0.418927
vt 0.597393 0.355957
vt 0.597393 0.415630
vt 0.535702 0.416529
vt 0.536070 0.356407
vt 0.037220 0.420153
vt 0.096502 0.420025
vt 0.096708 0.364852
vt 0.037427 0.364980
vt 0.275877 0.367214
vt 0.247839 0.459194
vt 0.220632 0.366709
s 0
usemtl textura_brazoIzquierdo.001
f 37/110/25 41/111/25 43/112/25 39/113/25
f 40/114/26 39/115/26 43/116/26 44/117/26
f 44/118/27 43/119/27 41/120/27 42/121/27
f 40/122/26 44/123/26 46/123/26 48/122/26
f 38/124/28 37/125/28 39/126/28 40/127/28
f 42/128/29 41/129/29 37/130/29 38/131/29
f 45/132/30 47/133/30 48/134/30 46/135/30
f 44/136/27 42/137/27 45/138/27 46/139/27
f 38/140/28 40/141/28 48/142/28 47/143/28
f 42/144/29 38/145/29 47/146/29 45/144/29
